<?xml version="1.0" standalone="no"?>
<!DOCTYPE svg PUBLIC "-//W3C//DTD SVG 20010904//EN"
 "http://www.w3.org/TR/2001/REC-SVG-20010904/DTD/svg10.dtd">
<svg version="1.0" xmlns="http://www.w3.org/2000/svg"
 width="512.000000pt" height="512.000000pt" viewBox="0 0 512.000000 512.000000"
 preserveAspectRatio="xMidYMid meet">

<g transform="translate(0.000000,512.000000) scale(0.100000,-0.100000)"
fill="#000000" stroke="none">
<path d="M1945 5041 c-6 -5 -27 -14 -47 -20 -56 -18 -141 -93 -173 -153 -16
-29 -31 -55 -35 -58 -4 -3 -18 -37 -31 -77 l-24 -72 -265 -4 c-199 -3 -284 -8
-339 -21 -79 -17 -209 -78 -276 -129 -63 -47 -153 -147 -187 -207 -18 -30 -35
-57 -39 -60 -15 -10 -58 -159 -68 -235 -15 -107 -15 -3174 0 -3281 11 -82 55
-234 67 -234 4 0 20 -25 36 -55 40 -76 216 -255 252 -255 5 0 25 -11 45 -24
20 -13 69 -34 110 -46 41 -12 82 -25 91 -31 24 -12 2972 -12 2996 0 9 6 50 19
91 31 41 12 90 33 110 46 20 13 40 24 45 24 37 0 213 181 257 264 18 34 36 63
40 66 13 10 48 140 59 222 8 58 10 577 8 1688 l-3 1605 -23 79 c-41 142 -137
285 -256 383 -67 56 -218 131 -297 150 -44 10 -149 16 -334 19 l-270 5 -19 57
c-10 31 -22 59 -25 62 -3 3 -21 34 -38 70 -37 74 -106 140 -174 166 -24 9 -48
21 -54 26 -12 11 -1218 11 -1230 -1z m1162 -361 c37 -75 75 -164 99 -235 15
-44 31 -81 36 -83 4 -2 10 -20 14 -39 12 -66 44 -63 -702 -63 -761 0 -708 -6
-685 78 7 26 16 49 20 52 4 3 20 41 35 85 29 82 81 200 99 223 8 9 123 12 540
10 l531 -3 13 -25z m-1582 -407 c9 -67 24 -123 43 -158 25 -49 93 -115 147
-142 103 -53 98 -53 845 -53 746 0 742 0 845 52 94 48 185 183 185 277 0 14 3
36 6 49 6 22 8 22 178 22 139 0 182 -4 231 -19 101 -31 148 -57 199 -107 44
-44 96 -130 96 -161 0 -6 6 -13 13 -15 9 -4 12 -341 12 -1644 l0 -1639 -42
-85 c-52 -106 -124 -171 -235 -212 l-73 -27 -1410 -1 -1410 0 -77 26 c-132 46
-229 146 -275 284 -9 26 -12 440 -12 1640 -1 1558 1 1670 28 1690 4 3 15 25
26 49 19 43 86 118 132 148 13 9 61 29 106 44 77 26 92 28 259 29 l177 0 6
-47z"/>
<path d="M1515 2693 c-29 -7 -75 -53 -91 -90 -33 -77 -4 -174 66 -218 l40 -25
1027 0 1028 0 40 23 c58 33 87 88 82 160 -4 61 -22 95 -71 131 -27 21 -34 21
-1064 22 -570 1 -1046 0 -1057 -3z"/>
<path d="M1980 1964 c-101 -32 -154 -129 -119 -221 15 -42 68 -92 109 -103 48
-13 1133 -13 1181 0 46 13 106 79 115 126 17 93 -46 182 -144 203 -85 18
-1084 14 -1142 -5z"/>
</g>
</svg>
