<?xml version="1.0" standalone="no"?>
<!DOCTYPE svg PUBLIC "-//W3C//DTD SVG 20010904//EN"
 "http://www.w3.org/TR/2001/REC-SVG-20010904/DTD/svg10.dtd">
<svg version="1.0" xmlns="http://www.w3.org/2000/svg"
 width="512.000000pt" height="512.000000pt" viewBox="0 0 512.000000 512.000000"
 preserveAspectRatio="xMidYMid meet">

<g transform="translate(0.000000,512.000000) scale(0.100000,-0.100000)"
fill="#000000" stroke="none">
<path d="M2409 5035 c-64 -23 -103 -47 -153 -94 -82 -77 -2079 -2075 -2110
-2112 -16 -19 -41 -59 -55 -89 -24 -51 -26 -65 -26 -190 0 -128 2 -138 29
-198 16 -34 32 -62 36 -62 3 0 21 -21 40 -46 62 -86 190 -148 331 -160 l84 -6
-3 -717 c-1 -412 2 -758 7 -816 9 -90 15 -109 57 -193 35 -67 63 -107 104
-145 94 -87 112 -99 211 -136 52 -20 74 -21 544 -21 l490 0 38 31 c20 17 37
37 37 44 0 7 6 15 13 17 9 4 13 149 17 665 l5 660 29 41 c16 23 32 42 35 42 4
0 17 9 29 20 12 11 33 25 47 30 35 13 595 13 630 0 15 -6 33 -17 41 -25 8 -8
23 -20 32 -27 10 -7 29 -29 42 -48 l25 -35 5 -659 c4 -515 8 -660 18 -664 6
-2 12 -10 12 -17 0 -7 17 -27 37 -44 l38 -31 490 0 c470 0 492 1 544 21 97 36
114 48 212 137 56 51 125 166 145 242 12 45 14 192 14 841 l0 787 86 7 c149
12 271 70 334 159 19 25 36 46 40 46 8 0 26 36 51 105 14 37 19 77 19 155 0
132 -22 203 -87 280 -30 35 -2024 2032 -2111 2113 -31 29 -79 60 -119 78 -62
26 -78 28 -183 28 -70 0 -129 -6 -151 -14z"/>
</g>
</svg>
