<?xml version="1.0" standalone="no"?>
<!DOCTYPE svg PUBLIC "-//W3C//DTD SVG 20010904//EN"
 "http://www.w3.org/TR/2001/REC-SVG-20010904/DTD/svg10.dtd">
<svg version="1.0" xmlns="http://www.w3.org/2000/svg"
 width="512.000000pt" height="512.000000pt" viewBox="0 0 512.000000 512.000000"
 preserveAspectRatio="xMidYMid meet">

<g transform="translate(0.000000,512.000000) scale(0.100000,-0.100000)"
fill="#000000" stroke="none">
<path d="M3105 4253 c-108 -57 -155 -183 -106 -288 13 -27 205 -225 590 -610
l571 -570 -1897 -5 -1898 -5 -45 -25 c-24 -14 -58 -45 -75 -68 -27 -40 -30
-51 -30 -122 0 -71 3 -82 30 -122 17 -23 51 -54 75 -68 l45 -25 1898 -5 1897
-5 -566 -565 c-311 -311 -573 -581 -583 -600 -46 -89 -33 -178 38 -250 48 -50
94 -70 161 -70 87 0 95 8 902 816 536 538 772 780 783 806 21 52 19 133 -5
182 -28 58 -1551 1579 -1602 1601 -48 19 -144 19 -183 -2z"/>
</g>
</svg>
